<mxfile host="app.diagrams.net" modified="2020-12-17T07:31:57.510Z" agent="5.0 (Windows NT 10.0; Win64; x64) AppleWebKit/537.36 (KHTML, like Gecko) Chrome/87.0.4280.88 Safari/537.36" etag="dzVmr5tnvx2Ik86wUuJi" version="14.0.4" type="github">
  <diagram id="4_PCKElJdp1y01fBiNsP" name="Page-1">
    <mxGraphModel dx="807" dy="704" grid="1" gridSize="10" guides="1" tooltips="1" connect="1" arrows="1" fold="1" page="1" pageScale="1" pageWidth="827" pageHeight="1169" math="0" shadow="0">
      <root>
        <mxCell id="0" />
        <mxCell id="1" parent="0" />
        <mxCell id="2rW2CMde9Ty5dH3GCtTs-4" value="" style="edgeStyle=orthogonalEdgeStyle;rounded=0;orthogonalLoop=1;jettySize=auto;html=1;" edge="1" parent="1" source="2rW2CMde9Ty5dH3GCtTs-1" target="2rW2CMde9Ty5dH3GCtTs-3">
          <mxGeometry relative="1" as="geometry" />
        </mxCell>
        <mxCell id="2rW2CMde9Ty5dH3GCtTs-1" value="hashCode()方法计算哈希值" style="rounded=0;whiteSpace=wrap;html=1;" vertex="1" parent="1">
          <mxGeometry x="310" y="70" width="160" height="40" as="geometry" />
        </mxCell>
        <mxCell id="2rW2CMde9Ty5dH3GCtTs-2" value="HashSet添加元素过程" style="text;html=1;strokeColor=#3700CC;fillColor=#6a00ff;align=center;verticalAlign=middle;whiteSpace=wrap;rounded=0;fontColor=#ffffff;" vertex="1" parent="1">
          <mxGeometry x="310" y="20" width="150" height="30" as="geometry" />
        </mxCell>
        <mxCell id="2rW2CMde9Ty5dH3GCtTs-6" value="" style="edgeStyle=orthogonalEdgeStyle;rounded=0;orthogonalLoop=1;jettySize=auto;html=1;" edge="1" parent="1" source="2rW2CMde9Ty5dH3GCtTs-3" target="2rW2CMde9Ty5dH3GCtTs-5">
          <mxGeometry relative="1" as="geometry" />
        </mxCell>
        <mxCell id="2rW2CMde9Ty5dH3GCtTs-3" value="计算在哈希表中的索引" style="whiteSpace=wrap;html=1;rounded=0;" vertex="1" parent="1">
          <mxGeometry x="310" y="140" width="160" height="30" as="geometry" />
        </mxCell>
        <mxCell id="2rW2CMde9Ty5dH3GCtTs-8" value="" style="edgeStyle=orthogonalEdgeStyle;rounded=0;orthogonalLoop=1;jettySize=auto;html=1;" edge="1" parent="1" source="2rW2CMde9Ty5dH3GCtTs-5" target="2rW2CMde9Ty5dH3GCtTs-7">
          <mxGeometry relative="1" as="geometry" />
        </mxCell>
        <mxCell id="2rW2CMde9Ty5dH3GCtTs-9" value="否" style="edgeLabel;html=1;align=center;verticalAlign=middle;resizable=0;points=[];" vertex="1" connectable="0" parent="2rW2CMde9Ty5dH3GCtTs-8">
          <mxGeometry x="-0.2978" y="2" relative="1" as="geometry">
            <mxPoint as="offset" />
          </mxGeometry>
        </mxCell>
        <mxCell id="2rW2CMde9Ty5dH3GCtTs-11" value="是" style="edgeStyle=orthogonalEdgeStyle;rounded=0;orthogonalLoop=1;jettySize=auto;html=1;" edge="1" parent="1" source="2rW2CMde9Ty5dH3GCtTs-5" target="2rW2CMde9Ty5dH3GCtTs-10">
          <mxGeometry relative="1" as="geometry" />
        </mxCell>
        <mxCell id="2rW2CMde9Ty5dH3GCtTs-5" value="索引处有元素？" style="rhombus;whiteSpace=wrap;html=1;rounded=0;" vertex="1" parent="1">
          <mxGeometry x="350" y="225" width="80" height="80" as="geometry" />
        </mxCell>
        <mxCell id="2rW2CMde9Ty5dH3GCtTs-7" value="添加成功" style="whiteSpace=wrap;html=1;rounded=0;fillColor=#60a917;strokeColor=#2D7600;fontColor=#ffffff;" vertex="1" parent="1">
          <mxGeometry x="140" y="253.75" width="120" height="22.5" as="geometry" />
        </mxCell>
        <mxCell id="2rW2CMde9Ty5dH3GCtTs-13" value="" style="edgeStyle=orthogonalEdgeStyle;rounded=0;orthogonalLoop=1;jettySize=auto;html=1;" edge="1" parent="1" source="2rW2CMde9Ty5dH3GCtTs-10" target="2rW2CMde9Ty5dH3GCtTs-12">
          <mxGeometry relative="1" as="geometry" />
        </mxCell>
        <mxCell id="2rW2CMde9Ty5dH3GCtTs-10" value="调用equals方法比较以有元素（包括链上的元素）" style="whiteSpace=wrap;html=1;rounded=0;" vertex="1" parent="1">
          <mxGeometry x="250" y="340" width="280" height="30" as="geometry" />
        </mxCell>
        <mxCell id="2rW2CMde9Ty5dH3GCtTs-15" value="true" style="edgeStyle=orthogonalEdgeStyle;rounded=0;orthogonalLoop=1;jettySize=auto;html=1;" edge="1" parent="1" source="2rW2CMde9Ty5dH3GCtTs-12" target="2rW2CMde9Ty5dH3GCtTs-14">
          <mxGeometry relative="1" as="geometry">
            <Array as="points">
              <mxPoint x="390" y="470" />
              <mxPoint x="390" y="470" />
            </Array>
          </mxGeometry>
        </mxCell>
        <mxCell id="2rW2CMde9Ty5dH3GCtTs-17" value="false" style="edgeStyle=orthogonalEdgeStyle;rounded=0;orthogonalLoop=1;jettySize=auto;html=1;" edge="1" parent="1" source="2rW2CMde9Ty5dH3GCtTs-12" target="2rW2CMde9Ty5dH3GCtTs-16">
          <mxGeometry relative="1" as="geometry" />
        </mxCell>
        <mxCell id="2rW2CMde9Ty5dH3GCtTs-12" value="返回值" style="rhombus;whiteSpace=wrap;html=1;rounded=0;" vertex="1" parent="1">
          <mxGeometry x="350" y="400" width="80" height="45" as="geometry" />
        </mxCell>
        <mxCell id="2rW2CMde9Ty5dH3GCtTs-14" value="相同元素，添加失败" style="whiteSpace=wrap;html=1;rounded=0;fillColor=#a20025;strokeColor=#6F0000;fontColor=#ffffff;" vertex="1" parent="1">
          <mxGeometry x="330" y="517.5" width="120" height="32.5" as="geometry" />
        </mxCell>
        <mxCell id="2rW2CMde9Ty5dH3GCtTs-16" value="不同元素，添加成功" style="whiteSpace=wrap;html=1;rounded=0;fillColor=#60a917;strokeColor=#2D7600;fontColor=#ffffff;" vertex="1" parent="1">
          <mxGeometry x="500" y="408.75" width="120" height="27.5" as="geometry" />
        </mxCell>
      </root>
    </mxGraphModel>
  </diagram>
</mxfile>
